<?xml version="1.0" encoding="UTF-8"?>
<svg version="1.1" xmlns="http://www.w3.org/2000/svg" width="5689" height="2846">
<path d="M0 0 C3.60583124 0.01356797 7.21156524 -0.00213047 10.81738687 -0.01382196 C17.84863557 -0.03205268 24.8796036 -0.02378836 31.91084312 -0.00573374 C37.62448356 0.00836512 43.33804848 0.01216956 49.05170465 0.00882399 C50.27730183 0.00810783 50.27730183 0.00810783 51.52765856 0.0073772 C53.18798551 0.00635077 54.84831244 0.00529541 56.50863935 0.00421143 C71.13446869 -0.00432409 85.76016331 0.01222502 100.38595986 0.04204047 C114.56505367 0.07094463 128.74395401 0.07792229 142.92306924 0.06254828 C158.40108849 0.04578869 173.87901627 0.04174366 189.3570379 0.05925864 C191.00654188 0.06110292 192.65604586 0.06293764 194.30554986 0.06476271 C195.11698247 0.0656748 195.92841509 0.06658689 196.76443657 0.06752662 C202.47658966 0.07312782 208.18869796 0.06982943 213.90084863 0.06321776 C220.85311893 0.05548911 227.80519886 0.06222249 234.75743078 0.0873928 C238.30262466 0.0998902 241.847522 0.10603112 245.39272714 0.09485114 C249.23455724 0.08296398 253.07587526 0.10205984 256.91766763 0.1243006 C258.59856951 0.11193945 258.59856951 0.11193945 260.313429 0.09932858 C266.43222858 0.16491387 270.11885988 0.48921433 274.74191689 4.6389643 C278.82394159 10.04488889 280.19383132 13.86024795 279.74191689 20.6389643 C277.9733359 26.33772527 275.65298481 29.26862357 270.74191689 32.6389643 C265.03330021 35.22168985 259.36845541 34.91105486 253.22810769 34.87706244 C252.06173494 34.87862145 250.8953622 34.88018045 249.69364482 34.8817867 C246.46403155 34.8842283 243.23457596 34.87778273 240.00498211 34.86768425 C236.51794529 34.85902458 233.03091741 34.86201938 229.54387307 34.86383307 C223.50022874 34.86564352 217.45661917 34.86085189 211.41298127 34.85222876 C201.84190382 34.83915852 192.27089378 34.84676297 182.6998179 34.85765326 C179.42056213 34.86113151 176.14130624 34.8644766 172.86205029 34.86778128 C172.04246521 34.86861262 171.22288013 34.86944396 170.37845914 34.87030049 C161.05096412 34.87948241 151.72346852 34.88443338 142.39596963 34.88749945 C141.11737634 34.88792808 141.11737634 34.88792808 139.81295288 34.88836536 C126.03440254 34.89245984 112.25589569 34.88127033 98.47735506 34.86612394 C84.3032684 34.85110245 70.12931212 34.85922895 55.95524436 34.88674104 C47.23020169 34.90282788 38.50557209 34.90036399 29.78055478 34.87326792 C23.78409839 34.8562452 17.78790653 34.86138139 11.79146677 34.88315222 C8.34359045 34.89499393 4.89642755 34.89764159 1.44860101 34.87327254 C-31.31375814 34.68705932 -59.23927312 43.68040738 -83.25808311 66.6389643 C-83.94515342 67.25126898 -84.63222373 67.86357367 -85.34011436 68.49443305 C-97.17736128 79.44447014 -104.43179125 94.9885238 -109.00808311 110.2014643 C-109.30633994 111.19110175 -109.30633994 111.19110175 -109.61062217 112.20073187 C-113.03355304 124.25291256 -113.66282906 136.0726025 -113.63308311 148.5139643 C-113.63287162 149.32955817 -113.63266013 150.14515204 -113.63244224 150.98546088 C-113.59828353 164.20439598 -112.7161394 176.81829873 -109.25808311 189.6389643 C-109.07616416 190.3299018 -108.89424521 191.0208393 -108.70681357 191.7327143 C-101.86262412 216.78526122 -86.13501455 239.40562022 -63.65261436 252.71318305 C-62.53241904 253.34869086 -61.41222373 253.98419867 -60.25808311 254.6389643 C-59.27195029 255.20228461 -58.28581748 255.76560492 -57.26980186 256.34599555 C-42.74798832 264.10799331 -29.69802844 266.37620767 -13.54523826 265.98114264 C-11.66056636 265.9550295 -9.7758598 265.93133076 -7.89113033 265.90977001 C-3.74730777 265.85738597 0.39581173 265.78852337 4.53916991 265.70737791 C11.50298279 265.57157033 18.46707249 265.47400371 25.43156552 265.38058054 C33.32287479 265.27270506 41.21410255 265.1615868 49.10517853 265.03784496 C71.43193273 264.68845745 93.75903797 264.42027524 116.08722329 264.18068182 C117.87618308 264.16140892 119.66514276 264.14212607 121.45410233 264.12283345 C128.82211695 264.04341459 136.19013322 263.96415258 143.5581536 263.88526927 C164.30175503 263.66284852 185.04518911 263.42595574 205.78862726 263.18887381 C214.15673513 263.09328405 222.52484701 262.9980452 230.89295826 262.90275203 C233.02016888 262.87852657 235.14737944 262.85429641 237.27458994 262.83006161 C261.43989963 262.55475831 285.60523809 262.28201938 309.77058084 262.00963603 C315.43152955 261.94582475 321.09247801 261.88199124 326.75342649 261.81815964 C329.03252388 261.79246152 331.31162127 261.76676348 333.59071866 261.74106552 C334.72180214 261.72831194 335.85288562 261.71555837 337.01824436 261.70241832 C340.45702061 261.66364506 343.89579687 261.62487408 347.33457315 261.58610333 C372.9614876 261.29716204 398.58839832 261.00789049 424.21530557 260.71831 C425.963771 260.69855395 425.963771 260.69855395 427.74755896 260.67839879 C465.59318639 260.2507581 503.43878249 259.8204055 541.28436602 259.38889908 C580.53093359 258.94143824 619.77753853 258.49739128 659.02418887 258.05724738 C664.59617337 257.99475573 670.16815741 257.93222313 675.74014115 257.86966383 C676.83590405 257.85736198 677.93166695 257.84506013 679.06063479 257.83238549 C696.43619262 257.63721213 713.81170861 257.4385389 731.18720973 257.238387 C748.71573604 257.03654085 766.24430198 256.83846353 783.77291092 256.64392298 C793.20423484 256.53915034 802.63553532 256.43290417 812.06678796 256.32188475 C830.72304053 256.10312295 849.37904213 255.91086782 868.03609373 255.77450167 C878.22707126 255.6977018 888.41675021 255.57967834 898.60695692 255.43275797 C906.73983926 255.31762216 914.87272771 255.23390044 923.00617214 255.17021357 C927.88000015 255.13088351 932.75271008 255.07809753 937.62590047 254.98884844 C958.56443554 254.61510909 977.36487674 254.50543471 996.74191689 263.6389643 C997.70388538 264.09049577 998.66585387 264.54202725 999.65697292 265.00724149 C1016.38952595 272.98553314 1030.43581796 282.81604772 1043.74191689 295.6389643 C1044.58238564 296.40466742 1045.42285439 297.17037055 1046.28879189 297.9592768 C1076.37376741 326.22382386 1089.2579128 369.59350537 1090.86789346 409.78373969 C1091.97432999 455.7183626 1084.31123889 502.51441356 1051.81320596 537.01689398 C1028.49347807 561.00992884 997.11481593 570.52763898 964.29170012 570.99565315 C956.73385323 571.07374394 949.17609375 571.07796591 941.61792445 571.07170415 C936.87110166 571.07107414 932.12433346 571.08775736 927.37753701 571.10222113 C919.17545298 571.12489833 910.9734111 571.13687333 902.77129769 571.14135039 C890.91277524 571.1478391 879.05432864 571.17082397 867.19583693 571.19769368 C847.95111649 571.24085794 828.70639926 571.2708837 809.46164346 571.29252875 C790.77933574 571.31356961 772.09705427 571.3408717 753.41476846 571.37651312 C752.26106864 571.37871195 751.10736883 571.38091077 749.91870841 571.38317623 C744.13030126 571.39424666 738.34189434 571.40543932 732.55348754 571.41669273 C684.61632055 571.50973097 636.67913871 571.58139681 588.74191689 571.6389643 C589.42173623 572.37719428 590.10155557 573.11542426 590.80197549 573.87602484 C591.70654617 574.86330918 592.61099957 575.85070098 593.51535439 576.83818305 C594.8444584 578.28584052 594.8444584 578.28584052 596.20041299 579.76274359 C619.21212385 605.8051034 629.81399387 641.02164984 630.11691689 675.2014643 C630.13794473 676.77746405 630.13794473 676.77746405 630.15939736 678.38530219 C630.09880017 688.55242364 628.37956637 697.26718428 626.74191689 707.6389643 C666.34191689 707.9689643 705.94191689 708.2989643 746.74191689 708.6389643 C746.80807539 760.25005735 746.86345941 811.86111036 746.89511288 863.47223369 C746.89886492 869.5678497 746.9027479 875.66346561 746.90671182 881.75908148 C746.90749875 882.97258935 746.90828568 884.18609722 746.90909646 885.43637805 C746.92214406 905.07547478 746.94579437 924.71454512 746.97337528 944.35362621 C747.00144741 964.51085336 747.01809698 984.66806671 747.02418238 1004.82531261 C747.02829506 1017.259567 747.04127647 1029.69374678 747.0656663 1042.12797819 C747.08154577 1050.6590104 747.08631224 1059.19000413 747.08242103 1067.72105004 C747.08050294 1072.64018284 747.08340666 1077.55918542 747.09953332 1082.47829497 C747.11421313 1086.98919387 747.1148172 1091.49987592 747.10461358 1096.01078515 C747.10335388 1097.63552316 747.10709064 1099.26027513 747.11656644 1100.884986 C747.24544705 1124.36382344 740.86025474 1143.18573663 724.42941689 1160.3889643 C708.43043773 1175.88038964 689.69092267 1181.11539699 667.98646951 1181.02664435 C666.31213066 1181.03082383 664.63779466 1181.0363047 662.96346384 1181.04296416 C658.39043916 1181.05735704 653.81759565 1181.05319339 649.24456131 1181.04579735 C644.30168187 1181.04105264 639.35884088 1181.05358706 634.4159739 1181.06381476 C624.74306372 1181.08098293 615.07021856 1181.08184683 605.39729711 1181.07660186 C597.53204906 1181.07255502 589.66682018 1181.07400981 581.80157304 1181.07935011 C580.6807331 1181.08009854 579.55989316 1181.08084696 578.40508837 1181.08161806 C576.12785074 1181.08314959 573.85061312 1181.08468794 571.5733755 1181.08623303 C550.23284732 1181.09995105 528.89235582 1181.09452541 507.55182848 1181.08304781 C488.04671151 1181.07311746 468.54168942 1181.08605397 449.03658708 1181.10998201 C428.98857488 1181.13438996 408.94060685 1181.14397662 388.89258009 1181.13732928 C377.64523509 1181.13384067 366.39796302 1181.13604541 355.15062928 1181.15358031 C345.57549194 1181.16832353 336.00047891 1181.16891005 326.42534395 1181.1515094 C321.54445718 1181.1430143 316.66379229 1181.14081333 311.78291726 1181.15616095 C307.30629335 1181.17006261 302.83008026 1181.16517499 298.35347978 1181.14592171 C296.74254708 1181.14217811 295.13158103 1181.14503586 293.52067818 1181.15553337 C271.05858952 1181.29138581 252.58008664 1174.14395179 236.30832314 1158.2639643 C218.45104529 1139.47316939 215.40333913 1116.37710867 215.50140786 1091.64959967 C215.5005336 1089.98673303 215.49877857 1088.32386666 215.49622953 1086.66100174 C215.49179535 1082.1342264 215.49970501 1077.60754719 215.50978565 1073.08078408 C215.51847507 1068.18325167 215.51549613 1063.28572406 215.5139811 1058.3881861 C215.51293571 1049.91699258 215.51917609 1041.44583003 215.53045678 1032.9746443 C215.54675581 1020.72694658 215.55192428 1008.47926374 215.55443276 996.23155635 C215.55880297 976.35734076 215.57209375 956.48314165 215.59103799 936.608935 C215.60941426 917.31043323 215.62356221 898.01193595 215.63205361 878.71342719 C215.63257906 877.52256981 215.63310451 876.33171243 215.63364588 875.10476846 C215.63625608 869.13019951 215.63878346 863.15563052 215.64126968 857.18106151 C215.66198119 807.66701446 215.6988396 758.15299792 215.74191689 708.6389643 C255.67191689 708.6389643 295.60191689 708.6389643 336.74191689 708.6389643 C335.75191689 703.3589643 334.76191689 698.0789643 333.74191689 692.6389643 C333.37190011 689.21692989 333.05974723 685.93495942 332.92941689 682.5139643 C332.87696816 681.20492133 332.87696816 681.20492133 332.82345986 679.86943305 C332.18112089 657.21385465 336.00817704 634.20615712 345.74191689 613.6389643 C346.08851357 612.90468207 346.43511025 612.17039984 346.79220986 611.41386664 C357.09906056 589.97863686 371.64976772 570.97928968 390.74191689 556.6389643 C391.53984658 556.03697211 392.33777627 555.43497992 393.15988564 554.81474555 C425.41982874 531.39602666 464.8455392 521.9747628 504.38595986 527.46440375 C516.76137333 529.53068816 529.00728836 533.22752892 540.54269814 538.13505805 C542.72970733 538.89568874 542.72970733 538.89568874 544.43426168 537.68646634 C547.64630898 536.22843826 550.34042283 536.3861044 553.86361909 536.38283789 C554.94565397 536.37774259 554.94565397 536.37774259 556.04954815 536.37254435 C558.47954155 536.36354288 560.90929678 536.36881744 563.33929849 536.37394965 C565.09406472 536.37038052 566.84882934 536.36593062 568.60359132 536.36067307 C573.43601611 536.34872057 578.26837329 536.34919493 583.10080934 536.35160816 C588.30897426 536.35202674 593.51711561 536.34093773 598.72526956 536.33114874 C607.75537506 536.31567434 616.78546491 536.30727981 625.81558251 536.30343878 C638.88694171 536.29769487 651.95825882 536.27911284 665.02959944 536.25699824 C686.255964 536.22125242 707.48233095 536.19295282 728.70871377 536.17070258 C730.615301 536.16870009 730.615301 536.16870009 732.56040515 536.16665715 C741.5792422 536.15723269 750.59807952 536.14807136 759.61691689 536.1389643 C769.90174782 536.12857353 780.1865786 536.11805399 790.47140908 536.10722601 C791.73788966 536.10589527 793.00437023 536.10456453 794.309229 536.10319346 C815.44292722 536.08074602 836.57660758 536.05053941 857.71028745 536.01483357 C870.74361311 535.99319055 883.77691095 535.97855405 896.81025358 535.9729948 C905.74866651 535.96874015 914.68705299 535.95748269 923.62545125 535.94077086 C928.77950508 535.93138694 933.93350946 535.92524374 939.08757234 535.92783415 C943.81293337 535.93015811 948.53819083 535.92325461 953.26353087 535.90925533 C954.96620284 535.90581474 956.66888568 535.90568032 958.37155722 535.90932792 C983.97975892 535.95879888 1007.54185654 530.93170473 1026.74191689 512.6389643 C1051.86563774 485.86448615 1057.00978175 447.03512957 1055.88986611 411.7327143 C1054.17956074 375.96870488 1042.45982016 341.99376967 1016.02316689 317.0764643 C1004.20848438 307.06873322 990.97943163 299.59485209 976.74191689 293.6389643 C976.14096693 293.37053393 975.54001696 293.10210356 974.92085638 292.82553893 C967.51401645 289.90032297 959.9630417 290.24453465 952.1368916 290.31372321 C950.56496263 290.31664838 948.99303088 290.31830683 947.42109927 290.31880617 C943.14397395 290.32425609 938.8671565 290.3490517 934.59013177 290.37772213 C930.93361612 290.39987718 927.27709893 290.41094417 923.62053563 290.42206666 C910.99407822 290.46092559 898.36806119 290.54396478 885.74191689 290.6389643 C884.8169873 290.64581399 883.89205771 290.65266369 882.93909995 290.65972096 C856.54535784 290.8560652 830.15274031 291.14054039 803.7600937 291.44841777 C792.95065069 291.57432408 782.14114591 291.69455769 771.33163818 291.81475607 C751.39779911 292.03655502 731.46400905 292.26248435 711.53024507 292.49092352 C691.84552327 292.71648604 672.16077924 292.93994331 652.47600389 293.16078436 C651.24032925 293.17464783 650.00465461 293.1885113 648.73153528 293.20279487 C642.45267941 293.2732271 636.17382311 293.34362016 629.89496661 293.41399622 C585.68399746 293.90958201 541.47307452 294.40917909 497.26218057 294.91142523 C486.60477105 295.03249153 475.94736148 295.15355309 465.28995156 295.27458441 C464.62889449 295.28209188 463.96783742 295.28959935 463.28674831 295.29733432 C432.45689265 295.64745203 401.62701853 295.99592915 370.79713809 296.34385748 C368.79108681 296.36649675 366.78503554 296.38913717 364.77898427 296.41177778 C334.53520647 296.75310826 304.29142361 297.09398991 274.04763532 297.43438971 C271.48121413 297.4632766 268.91479295 297.4921635 266.34837176 297.52105039 C256.19206917 297.63536365 246.03576656 297.74967649 235.87946332 297.86393237 C206.21733572 298.19763358 176.55522328 298.5326219 146.89313633 298.8699187 C128.32839924 299.08100752 109.76365205 299.29119124 91.19889664 299.50066221 C79.47047624 299.63303753 67.74206575 299.76623054 56.01366784 299.9005835 C48.16684733 299.99039691 40.32001561 300.07918181 32.47317431 300.1671598 C28.01336404 300.21719418 23.55355992 300.26766146 19.09376924 300.31941605 C10.64396343 300.41721574 2.19419523 300.50943729 -6.25586942 300.58199458 C-10.73360298 300.62133609 -15.21077618 300.68049075 -19.68819964 300.74556792 C-21.91557366 300.76806935 -24.1429539 300.78996764 -26.37034106 300.81112921 C-27.8145193 300.83884192 -27.8145193 300.83884192 -29.28787285 300.86711448 C-51.06422534 301.00343214 -74.18372166 289.55941392 -91.25808311 276.6389643 C-92.16300498 275.95447211 -93.06792686 275.26997992 -94.00027061 274.56474555 C-125.5334126 249.6866151 -142.99276775 214.05566189 -147.78860068 174.43754828 C-148.29624036 169.7356685 -148.45175846 165.07252954 -148.49636436 160.34599555 C-148.50611289 159.4854708 -148.51586143 158.62494605 -148.52590537 157.73834479 C-148.84648771 122.16312235 -148.84648771 122.16312235 -144.25808311 105.6389643 C-144.06021201 104.90162055 -143.86234092 104.1642768 -143.65847373 103.4045893 C-133.56090719 66.54356968 -110.76475863 37.35376597 -77.63308311 18.4514643 C-71.23610095 14.93888188 -64.68090404 11.97571805 -57.88308311 9.3264643 C-57.11915244 9.0252265 -56.35522178 8.72398871 -55.5681417 8.4136225 C-52.82202195 7.39592966 -50.05263509 6.51647343 -47.25808311 5.6389643 C-46.63742335 5.43739915 -46.0167636 5.235834 -45.37729597 5.02816081 C-30.30620936 0.26302076 -15.69659323 -0.08336486 0 0 Z M410.74191689 590.6389643 C409.53922158 591.63089789 409.53922158 591.63089789 408.31222939 592.64287055 C388.78052448 609.16267704 374.93417093 634.54417701 371.95285439 660.01787055 C370.97096126 676.87370277 371.36408818 692.50547816 376.74191689 708.6389643 C445.71191689 708.6389643 514.68191689 708.6389643 585.74191689 708.6389643 C595.58446026 682.39218199 592.87973786 653.75657642 581.51828408 628.35161078 C568.98477856 601.43501431 546.38570242 581.8981405 519.02316689 571.13505805 C482.71895855 558.14156468 439.77865249 564.36019821 410.74191689 590.6389643 Z " fill="#2872A3" transform="translate(790.2580831050873,902.3610357046127)"/>
<path d="M0 0 C32.76773249 28.28724662 50.31947758 68.71769618 54.1328125 111.43359375 C54.27914912 114.45882231 54.31888247 117.47934298 54.3359375 120.5078125 C54.34295181 121.34595993 54.34996613 122.18410736 54.35719299 123.0476532 C54.37460297 125.73885531 54.38104544 128.42983739 54.3828125 131.12109375 C54.38348724 132.04021545 54.38416199 132.95933716 54.38485718 133.90631104 C54.36886402 147.60691887 54.02498343 160.98898419 51.1328125 174.43359375 C50.96652344 175.22169434 50.80023438 176.00979492 50.62890625 176.82177734 C41.77615321 217.19197061 19.40277659 254.42564484 -15.6953125 277.06982422 C-47.25809926 296.8888133 -86.1757907 303.46901896 -122.6328125 295.43359375 C-152.71544947 288.25443461 -173.022591 273.27819025 -194.8671875 251.43359375 C-195.1971875 315.12359375 -195.5271875 378.81359375 -195.8671875 444.43359375 C-222.9271875 444.43359375 -249.9871875 444.43359375 -277.8671875 444.43359375 C-277.8671875 289.00359375 -277.8671875 133.57359375 -277.8671875 -26.56640625 C-250.8071875 -26.56640625 -223.7471875 -26.56640625 -195.8671875 -26.56640625 C-195.5371875 -12.70640625 -195.2071875 1.15359375 -194.8671875 15.43359375 C-191.2371875 11.47359375 -187.6071875 7.51359375 -183.8671875 3.43359375 C-134.83856772 -44.1530078 -51.36518502 -43.09087697 0 0 Z M-172.8359375 66 C-193.25891777 90.46830136 -198.293582 118.6909977 -195.65185547 149.984375 C-193.26097099 170.70839833 -183.45014841 188.77584842 -168.8671875 203.43359375 C-167.78244141 204.57054687 -167.78244141 204.57054687 -166.67578125 205.73046875 C-151.96884846 220.16366844 -131.56963427 226.71325668 -111.26977539 226.68017578 C-89.41058992 226.31755323 -70.28574759 217.10036364 -54.53125 202.25390625 C-34.384155 180.92516345 -28.25461686 154.54878458 -28.58984375 125.98828125 C-29.35370183 99.92589944 -39.68468089 78.6455231 -58.015625 60.28125 C-75.04556445 44.26572932 -96.10147923 39.74573865 -118.68359375 40.12890625 C-138.75969001 40.86225195 -159.05669928 51.51485819 -172.8359375 66 Z " fill="#2872A3" transform="translate(4957.8671875,1204.56640625)"/>
<path d="M0 0 C32.76773249 28.28724662 50.31947758 68.71769618 54.1328125 111.43359375 C54.27914912 114.45882231 54.31888247 117.47934298 54.3359375 120.5078125 C54.34295181 121.34595993 54.34996613 122.18410736 54.35719299 123.0476532 C54.37460297 125.73885531 54.38104544 128.42983739 54.3828125 131.12109375 C54.38348724 132.04021545 54.38416199 132.95933716 54.38485718 133.90631104 C54.36886402 147.60691887 54.02498343 160.98898419 51.1328125 174.43359375 C50.96652344 175.22169434 50.80023437 176.00979492 50.62890625 176.82177734 C41.77615321 217.19197061 19.40277659 254.42564484 -15.6953125 277.06982422 C-47.25809926 296.8888133 -86.1757907 303.46901896 -122.6328125 295.43359375 C-152.71544947 288.25443461 -173.022591 273.27819025 -194.8671875 251.43359375 C-195.1971875 315.12359375 -195.5271875 378.81359375 -195.8671875 444.43359375 C-222.9271875 444.43359375 -249.9871875 444.43359375 -277.8671875 444.43359375 C-277.8671875 289.00359375 -277.8671875 133.57359375 -277.8671875 -26.56640625 C-250.8071875 -26.56640625 -223.7471875 -26.56640625 -195.8671875 -26.56640625 C-195.5371875 -12.70640625 -195.2071875 1.15359375 -194.8671875 15.43359375 C-191.2371875 11.47359375 -187.6071875 7.51359375 -183.8671875 3.43359375 C-134.83856772 -44.1530078 -51.36518502 -43.09087697 0 0 Z M-172.8359375 66 C-193.25891777 90.46830136 -198.293582 118.6909977 -195.65185547 149.984375 C-193.26097099 170.70839833 -183.45014841 188.77584842 -168.8671875 203.43359375 C-167.78244141 204.57054687 -167.78244141 204.57054687 -166.67578125 205.73046875 C-151.96884846 220.16366844 -131.56963427 226.71325668 -111.26977539 226.68017578 C-89.41058992 226.31755323 -70.28574759 217.10036364 -54.53125 202.25390625 C-34.384155 180.92516345 -28.25461686 154.54878458 -28.58984375 125.98828125 C-29.35370183 99.92589944 -39.68468089 78.6455231 -58.015625 60.28125 C-75.04556445 44.26572932 -96.10147923 39.74573865 -118.68359375 40.12890625 C-138.75969001 40.86225195 -159.05669928 51.51485819 -172.8359375 66 Z " fill="#2872A3" transform="translate(3431.8671875,1204.56640625)"/>
<path d="M0 0 C27.06 0 54.12 0 82 0 C82.01458252 7.94908447 82.02916504 15.89816895 82.04418945 24.08813477 C82.09301426 49.56290155 82.15644196 75.03761206 82.22898628 100.51232168 C82.24025357 104.47362755 82.25139216 108.43493378 82.26245117 112.39624023 C82.26465486 113.18481849 82.26685854 113.97339675 82.269129 114.78587132 C82.30443872 127.53095106 82.32933849 140.27603075 82.35034702 153.02114118 C82.37215959 166.11244622 82.40526149 179.20368815 82.44870156 192.29493946 C82.4751246 200.3638204 82.49288866 208.4326228 82.49934604 216.50154483 C82.50525589 222.70343154 82.52692213 228.90517516 82.55427551 235.10700226 C82.56302962 237.64046681 82.5667838 240.17395465 82.56500816 242.7074337 C82.55330363 267.12519013 84.97502531 292.02612428 102.609375 310.8046875 C123.16126876 329.67750497 147.77747415 332.30701519 174.49511719 331.23193359 C181.67143519 330.7570449 188.21891406 329.3422777 195 327 C196.08667969 326.63777344 197.17335937 326.27554687 198.29296875 325.90234375 C214.17941637 319.96254394 226.72923464 308.06506189 234.13183594 292.93408203 C239.99976218 279.86160967 242.30636158 265.81947175 242.2784729 251.57244873 C242.2871615 249.94610768 242.2871615 249.94610768 242.29602563 248.28691125 C242.31289737 244.68961554 242.31589103 241.09244912 242.31884766 237.49511719 C242.32815468 234.90224396 242.3383245 232.30937371 242.34928894 229.71650696 C242.37146482 224.15258064 242.38653595 218.58867242 242.39665604 213.02471161 C242.41129808 204.9803595 242.43685004 196.93607049 242.46498732 188.89175561 C242.51035543 175.83752182 242.54701129 162.78327889 242.578125 149.72900391 C242.60835157 137.05483397 242.64272058 124.38068632 242.68261719 111.70654297 C242.68507874 110.92411581 242.68754028 110.14168866 242.69007643 109.33555159 C242.70245182 105.40998825 242.7149082 101.48442517 242.72740483 97.55886221 C242.83082304 65.03926794 242.91845888 32.51965831 243 0 C270.06 0 297.12 0 325 0 C325.06627478 33.78416488 325.12161375 67.56826609 325.15319599 101.35247652 C325.15694761 105.35111402 325.16083062 109.34975138 325.16479492 113.34838867 C325.16558185 114.14436491 325.16636878 114.94034115 325.16717956 115.76043788 C325.18019385 128.60819373 325.20382549 141.45590885 325.23145839 154.30364063 C325.25962378 167.51019442 325.27619965 180.71672704 325.28226548 193.92330962 C325.28635898 202.05670075 325.29923453 210.18997671 325.3237494 218.32333235 C325.33974446 223.91889241 325.34436965 229.51439392 325.34050413 235.10997512 C325.33860369 238.32676357 325.34298235 241.54331343 325.35761642 244.76007462 C325.43800696 263.35953464 324.74688612 281.89371051 319.25 299.8125 C318.99395996 300.67302979 318.73791992 301.53355957 318.47412109 302.42016602 C312.52985234 321.75247587 302.97034501 338.5509415 290 354 C289.23558594 354.91910156 288.47117188 355.83820313 287.68359375 356.78515625 C282.35251314 362.95547675 276.45200813 368.03412858 270 373 C269.2059375 373.64453125 268.411875 374.2890625 267.59375 374.953125 C247.10289391 390.9048674 222.14834414 399.09712095 197 404 C195.22302734 404.35384766 195.22302734 404.35384766 193.41015625 404.71484375 C147.70493449 412.4547886 96.71147196 404.01455641 58.5 377.0625 C26.4146783 353.4797416 8.16491859 318.97747065 1.7265625 280.1484375 C0.37437019 270.98216574 -0.1473573 261.91437533 -0.12025452 252.65473938 C-0.12110894 251.56728288 -0.12196337 250.47982639 -0.12284368 249.35941666 C-0.12448011 245.74520915 -0.11900741 242.13104889 -0.11352539 238.5168457 C-0.1132431 235.91427105 -0.11340208 233.31169631 -0.1139679 230.7091217 C-0.11449026 225.12115815 -0.11137362 219.53320634 -0.10573006 213.94524574 C-0.09757593 205.86616133 -0.09499584 197.78708256 -0.09374207 189.70799448 C-0.09155768 176.59772553 -0.08491425 163.48746283 -0.07543945 150.37719727 C-0.06624945 137.64770539 -0.05917639 124.91821523 -0.05493164 112.1887207 C-0.05466892 111.40304383 -0.05440619 110.61736695 -0.05413551 109.80788169 C-0.0528304 105.86606387 -0.05156671 101.92424603 -0.05032361 97.98242819 C-0.03997009 65.32161326 -0.0215421 32.66080995 0 0 Z " fill="#2872A3" transform="translate(4278,1095)"/>
<path d="M0 0 C27.06 0 54.12 0 82 0 C82.33 47.19 82.66 94.38 83 143 C86.96 138.545 86.96 138.545 91 134 C93.14918789 132.05549667 95.21589422 130.2541168 97.5 128.5 C98.09401611 128.04206055 98.68803223 127.58412109 99.30004883 127.11230469 C120.52712463 111.16505992 146.52017238 102.78081543 173 102 C174.60101562 101.94005859 174.60101562 101.94005859 176.234375 101.87890625 C210.93718008 101.19924302 243.57381634 111.65472684 269.125 135.6875 C298.29395261 166.39166064 305.1968979 206.82304681 305.11352539 247.65161133 C305.1132428 249.60424295 305.11340265 251.55687467 305.1139679 253.50950623 C305.11425307 258.7730408 305.10840183 264.03655226 305.10139394 269.30008149 C305.09511356 274.8146924 305.09455291 280.32930392 305.09336853 285.84391785 C305.09026897 296.26995075 305.08207422 306.69597309 305.07201904 317.12200135 C305.06081507 328.99873806 305.05533668 340.8754753 305.05032361 352.75221598 C305.03989038 377.16815119 305.0215621 401.58407191 305 426 C277.94 426 250.88 426 223 426 C222.97812622 417.4921875 222.97812622 417.4921875 222.95581055 408.8125 C222.90540972 390.04501992 222.83895333 371.27762185 222.76428509 352.51022339 C222.71941645 341.13475474 222.67998137 329.75931677 222.65356445 318.38378906 C222.63051184 308.46302666 222.59703327 298.54236209 222.55129844 288.6216774 C222.52746383 283.37407251 222.50867131 278.12656393 222.50238609 272.87890625 C222.49629079 267.92782401 222.47613256 262.97698787 222.44572449 258.02599716 C222.43701491 256.22022086 222.43320677 254.4144123 222.43499184 252.60861588 C222.45035731 229.86863693 218.50035016 208.11942007 202.71484375 190.6171875 C186.38399787 175.21634424 166.17512667 172.28037447 144.67285156 172.86376953 C127.00205746 173.76441834 111.21647047 181.8293792 99.09765625 194.50390625 C84.60984048 211.74359765 82.70582347 233.27059955 82.68115234 254.80371094 C82.67183819 256.67738266 82.66166734 258.55105029 82.65071106 260.42471313 C82.62356461 265.47755175 82.6083075 270.53036272 82.59528303 275.58325481 C82.57958485 280.87635633 82.55281616 286.16940197 82.5272522 291.46246338 C82.48058231 301.47059497 82.44378134 311.47873721 82.41057932 321.48692155 C82.37227435 332.88725945 82.32288627 344.28754106 82.27259517 355.6878314 C82.16945075 379.12518443 82.08159652 402.56256137 82 426 C54.94 426 27.88 426 0 426 C0 285.42 0 144.84 0 0 Z " fill="#2872A3" transform="translate(2407,1071)"/>
<path d="M0 0 C2.43131326 2.2427766 4.79633575 4.54831013 7.16455078 6.85766602 C7.88126953 7.5009082 8.59798828 8.14415039 9.33642578 8.80688477 C27.01103776 25.10287701 36.94367402 51.3230018 39.16455078 74.85766602 C39.16455078 77.49766602 39.16455078 80.13766602 39.16455078 82.85766602 C9.79455078 82.85766602 -19.57544922 82.85766602 -49.83544922 82.85766602 C-51.81544922 75.43266602 -51.81544922 75.43266602 -53.83544922 67.85766602 C-59.65508976 55.13566111 -68.08327143 46.74446272 -80.83544922 40.85766602 C-100.52451606 33.89239398 -121.05612388 33.50435476 -140.27294922 42.04516602 C-151.31171242 48.15922846 -156.12072128 57.10130046 -160.14794922 68.60766602 C-162.64618567 80.28211714 -161.44953707 92.29215586 -155.21044922 102.48266602 C-137.91572958 126.40982668 -102.82683378 133.05385793 -76.15533447 141.1947937 C11.57697171 167.97876057 11.57697171 167.97876057 33.43945312 208.64477539 C46.79891107 234.7224373 47.54994645 267.25923379 38.81689453 294.93530273 C32.79590265 312.67830052 23.46538851 327.73195452 10.16455078 340.85766602 C8.85357422 342.18411133 8.85357422 342.18411133 7.51611328 343.53735352 C-21.22123728 371.23912388 -62.8882361 380.17233321 -101.56982422 379.85766602 C-146.4582075 378.88476117 -189.02238721 366.18171003 -220.76123047 333.23657227 C-239.74329937 312.83889145 -247.83544922 286.22890434 -247.83544922 258.85766602 C-219.12544922 258.85766602 -190.41544922 258.85766602 -160.83544922 258.85766602 C-159.51544922 264.46766602 -158.19544922 270.07766602 -156.83544922 275.85766602 C-155.59435176 279.16725924 -154.53046231 281.85422177 -152.83544922 284.85766602 C-152.20703125 285.97334961 -152.20703125 285.97334961 -151.56591797 287.11157227 C-144.3285083 298.89479297 -133.36477347 305.90044418 -120.21044922 309.73266602 C-101.32290388 313.53751532 -79.0976682 312.63602576 -62.29638672 302.54516602 C-52.53946566 295.85470586 -45.37770139 287.52006495 -42.30810547 275.88500977 C-40.08031925 261.61613108 -41.60740893 248.85614414 -50.15966797 236.90844727 C-67.83317771 215.28002625 -100.46164842 209.64632874 -125.81152344 202.02246094 C-213.59589221 175.59986244 -213.59589221 175.59986244 -235.67138672 136.61547852 C-250.06218606 109.35189664 -250.54824118 75.46905368 -241.71044922 46.29516602 C-236.99875315 33.13345216 -230.39246618 21.11872655 -220.83544922 10.85766602 C-220.36655273 10.34252441 -219.89765625 9.82738281 -219.41455078 9.29663086 C-168.65707382 -46.0766555 -55.90030255 -49.88812207 0 0 Z " fill="#2872A3" transform="translate(2294.83544921875,1122.142333984375)"/>
<path d="M0 0 C1.18770996 0.24943359 1.18770996 0.24943359 2.39941406 0.50390625 C39.08034868 8.4941058 72.66737468 29.76964422 93.64453125 61.1796875 C109.40072193 86.25767404 119.12358323 114.97078037 119.16796875 144.76953125 C119.17129715 145.57178635 119.17462555 146.37404144 119.17805481 147.2006073 C119.18307928 148.88544142 119.18546454 150.57028534 119.18530273 152.25512695 C119.18748574 154.79590708 119.20568009 157.33624966 119.22460938 159.87695312 C119.22754517 161.52864438 119.22952872 163.18033765 119.23046875 164.83203125 C119.23765427 165.57306595 119.24483978 166.31410065 119.25224304 167.07759094 C119.22428737 173.71827664 118.13373385 179.19759691 117 186 C40.11 186 -36.78 186 -116 186 C-110.15993701 211.69627714 -103.95351034 232.29534769 -81.30078125 246.9921875 C-62.63702918 258.34504971 -40.59546157 260.82119716 -19.46484375 255.97265625 C-1.24168873 250.85702423 11.63248002 240.30454829 21 224 C21.66 222.68 22.32 221.36 23 220 C52.04 220 81.08 220 111 220 C109.87281749 227.8902776 109.87281749 227.8902776 108.43359375 231.34765625 C108.11720947 232.11070068 107.8008252 232.87374512 107.47485352 233.65991211 C107.13252686 234.45276611 106.7902002 235.24562012 106.4375 236.0625 C106.08034912 236.89595947 105.72319824 237.72941895 105.35522461 238.58813477 C93.64740533 265.35510129 73.77370821 288.46651314 49 304 C48.39704102 304.37898438 47.79408203 304.75796875 47.17285156 305.1484375 C9.36762302 328.50967774 -39.24286878 332.2072536 -81.90258789 322.15820312 C-119.69320134 312.68286863 -153.43866129 290.10992024 -173.8828125 256.5703125 C-174.59086432 255.38158873 -175.29661953 254.19149381 -176 253 C-176.3412793 252.43120117 -176.68255859 251.86240234 -177.03417969 251.27636719 C-202.15915655 208.88848757 -203.89441298 154.86572823 -192.39111328 108.00024414 C-186.18418372 84.53176489 -174.56303604 62.7348722 -158 45 C-157.48099121 44.4332959 -156.96198242 43.8665918 -156.42724609 43.28271484 C-143.42302792 29.1906027 -128.50166526 18.7711126 -111 11 C-110.38979004 10.72462402 -109.77958008 10.44924805 -109.15087891 10.16552734 C-75.9823612 -4.60670645 -35.4183235 -7.5949803 0 0 Z M-96.09765625 86.65234375 C-106.02443751 98.90284793 -115 114.87443681 -115 131 C-65.5 131 -16 131 35 131 C33.39707746 111.76492953 28.45164067 96.37545466 14 83 C-17.84590027 57.48192147 -66.9095333 55.61296565 -96.09765625 86.65234375 Z " fill="#2872A3" transform="translate(3722,1176)"/>
<path d="M0 0 C0.76185608 0.00215515 1.52371216 0.0043103 2.30865479 0.00653076 C45.83521048 0.20324682 86.33849099 14.93591111 117.8125 45.3125 C118.66457031 46.10140625 119.51664063 46.8903125 120.39453125 47.703125 C146.0238474 72.08124618 159.18695036 106.89322318 163.8125 141.3125 C163.94527344 142.29863281 164.07804687 143.28476563 164.21484375 144.30078125 C168.90907373 188.73520479 158.69550983 235.09513131 130.3984375 270.265625 C100.07970011 305.98860863 59.89213356 325.7225179 13.25 330 C-30.40117526 332.64552577 -76.20959384 322.85502331 -109.69921875 293.2578125 C-112.92329972 290.337626 -116.07443248 287.35034652 -119.1875 284.3125 C-119.75178711 283.77665283 -120.31607422 283.24080566 -120.89746094 282.6887207 C-125.31011074 278.42149607 -129.00251436 273.86911858 -132.5625 268.875 C-133.12412842 268.08786621 -133.68575684 267.30073242 -134.2644043 266.48974609 C-161.56475207 227.63639993 -169.54272296 179.18101077 -162.1640625 132.61328125 C-156.85365058 102.42749256 -144.30303048 73.96685625 -123.1953125 51.49609375 C-121.12347301 49.29641819 -121.12347301 49.29641819 -119.14453125 46.734375 C-116.20832954 43.10075213 -112.78438315 40.27633171 -109.1875 37.3125 C-108.24777344 36.53519531 -107.30804687 35.75789063 -106.33984375 34.95703125 C-76.28555653 10.6815 -38.21177525 -0.19621611 0 0 Z M-54.1875 91.3125 C-54.86941406 91.90289063 -55.55132813 92.49328125 -56.25390625 93.1015625 C-72.44946442 107.99767275 -80.34726987 131.25773681 -81.34863281 152.77490234 C-81.39465268 156.745989 -81.43416106 160.71614186 -81.4375 164.6875 C-81.43817474 165.40525604 -81.43884949 166.12301208 -81.43954468 166.86251831 C-81.39849251 194.32104911 -74.74126341 218.01695987 -55.5625 238.375 C-40.68100466 252.87376399 -20.68509654 259.42601908 -0.1875 259.3125 C19.52329578 258.40772663 38.09705019 251.58475333 52.8125 238.3125 C53.49699219 237.72082031 54.18148437 237.12914062 54.88671875 236.51953125 C71.5259482 221.18790333 79.86402929 196.94528476 80.93676758 174.74023438 C81.73682051 146.42381001 78.14311682 119.28723076 58.8125 97.3125 C58.14605469 96.55066406 57.47960938 95.78882813 56.79296875 95.00390625 C43.04844312 80.29037881 23.99901987 72.0961914 4.0078125 70.9921875 C-17.90150679 70.25407742 -37.82176926 76.3377084 -54.1875 91.3125 Z " fill="#2872A3" transform="translate(2931.1875,1172.6875)"/>
<path d="M0 0 C99.56676136 0 99.56676136 0 119.875 7.25 C121.15685181 7.69279297 121.15685181 7.69279297 122.46459961 8.14453125 C130.67855348 11.07431015 138.37123084 14.79883468 146 19 C147.05445313 19.56460938 148.10890625 20.12921875 149.1953125 20.7109375 C184.89788366 40.56641441 210.39063406 75.24944775 222 114 C223.64930929 120.26535024 224.96675483 126.60443345 226 133 C226.1743457 134.07830078 226.34869141 135.15660156 226.52832031 136.26757812 C227.01508364 140.11935746 227.19515427 143.90939818 227.23828125 147.78515625 C227.25304001 148.87967606 227.25304001 148.87967606 227.26809692 149.99630737 C227.76833826 196.76050396 213.65636605 236.79755475 180.99609375 271.00390625 C176.65329209 275.42483091 171.94409272 279.27177791 167 283 C165.989375 283.78761719 164.97875 284.57523438 163.9375 285.38671875 C150.69597483 295.47123168 135.89869284 303.01349044 120.1875 308.4375 C118.89513428 308.89600342 118.89513428 308.89600342 117.57666016 309.36376953 C80.18617255 321.48733154 37.49278106 316 0 316 C0 211.72 0 107.44 0 0 Z " fill="#2872A3" transform="translate(1250,763)"/>
<path d="M0 0 C26.23382677 24.31324894 36.95373095 58.73892879 38.8125 93.625 C38.98596555 100.17375 38.93940144 106.72619093 38.92602539 113.27661133 C38.9257428 115.22924295 38.92590265 117.18187467 38.9264679 119.13450623 C38.92675307 124.3980408 38.92090183 129.66155226 38.91389394 134.92508149 C38.90761356 140.4396924 38.90705291 145.95430392 38.90586853 151.46891785 C38.90276897 161.89495075 38.89457422 172.32097309 38.88451904 182.74700135 C38.87331507 194.62373806 38.86783668 206.5004753 38.86282361 218.37721598 C38.85239038 242.79315119 38.8340621 267.20907191 38.8125 291.625 C11.7525 291.625 -15.3075 291.625 -43.1875 291.625 C-43.20937378 283.1171875 -43.20937378 283.1171875 -43.23168945 274.4375 C-43.28209028 255.67001992 -43.34854667 236.90262185 -43.42321491 218.13522339 C-43.46808355 206.75975474 -43.50751863 195.38431677 -43.53393555 184.00878906 C-43.55698816 174.08802666 -43.59046673 164.16736209 -43.63620156 154.2466774 C-43.66003617 148.99907251 -43.67882869 143.75156393 -43.68511391 138.50390625 C-43.69120921 133.55282401 -43.71136744 128.60198787 -43.74177551 123.65099716 C-43.75048509 121.84522086 -43.75429323 120.0394123 -43.75250816 118.23361588 C-43.73714269 95.49363693 -47.68714984 73.74442007 -63.47265625 56.2421875 C-79.80350213 40.84134424 -100.01237333 37.90537447 -121.51464844 38.48876953 C-139.18544254 39.38941834 -154.97102953 47.4543792 -167.08984375 60.12890625 C-181.57765952 77.36859765 -183.48167653 98.89559955 -183.50634766 120.42871094 C-183.51566181 122.30238266 -183.52583266 124.17605029 -183.53678894 126.04971313 C-183.56393539 131.10255175 -183.5791925 136.15536272 -183.59221697 141.20825481 C-183.60791515 146.50135633 -183.63468384 151.79440197 -183.6602478 157.08746338 C-183.70691769 167.09559497 -183.74371866 177.10373721 -183.77692068 187.11192155 C-183.81522565 198.51225945 -183.86461373 209.91254106 -183.91490483 221.3128314 C-184.01804925 244.75018443 -184.10590348 268.18756137 -184.1875 291.625 C-211.2475 291.625 -238.3075 291.625 -266.1875 291.625 C-266.1875 186.355 -266.1875 81.085 -266.1875 -27.375 C-239.1275 -27.375 -212.0675 -27.375 -184.1875 -27.375 C-183.6925 -9.555 -183.6925 -9.555 -183.1875 8.625 C-181.145625 6.500625 -179.10375 4.37625 -177 2.1875 C-130.50415166 -44.85772606 -48.13421834 -43.25435708 0 0 Z " fill="#2872A3" transform="translate(4165.1875,1205.375)"/>
<path d="M0 0 C0.93817566 -0.01913956 1.87635132 -0.03827911 2.84295654 -0.05799866 C3.85545471 -0.06133713 4.86795288 -0.0646756 5.91113281 -0.06811523 C6.95569641 -0.07810043 8.00026001 -0.08808563 9.07647705 -0.09837341 C11.28890011 -0.11357038 13.50139199 -0.12059872 15.71386719 -0.12011719 C19.08807985 -0.12665824 22.45931872 -0.18106911 25.83300781 -0.23803711 C27.98403943 -0.24684329 30.13508501 -0.25279475 32.28613281 -0.25561523 C33.29053406 -0.27717178 34.2949353 -0.29872833 35.32977295 -0.32093811 C40.36094992 -0.27209716 43.48634905 0.01821216 47.36254883 3.38769531 C47.87624527 3.92138229 48.38994171 4.45506927 48.91920471 5.00492859 C53.80910317 9.84680739 62.98248407 10.67858316 69.55175781 10.87329102 C79.26782184 10.48925686 88.38833735 7.41171148 95.36425781 0.43579102 C97.25498962 0.16836548 97.25498962 0.16836548 99.58276367 0.14526367 C100.8893821 0.12612411 100.8893821 0.12612411 102.22239685 0.1065979 C103.63646568 0.10325943 103.63646568 0.10325943 105.07910156 0.09985352 C106.04578262 0.09319672 107.01246368 0.08653992 108.00843811 0.0796814 C110.05532932 0.06954475 112.10225364 0.06486469 114.14916992 0.06518555 C117.28587125 0.06081316 120.4211651 0.02450627 123.55761719 -0.01342773 C125.54394049 -0.01929575 127.53027049 -0.02326524 129.51660156 -0.02514648 C130.92763405 -0.04670303 130.92763405 -0.04670303 132.36717224 -0.06869507 C133.24140335 -0.06254181 134.11563446 -0.05638855 135.01635742 -0.05004883 C136.16979897 -0.05432388 136.16979897 -0.05432388 137.34654236 -0.0586853 C139.36425781 0.43579102 139.36425781 0.43579102 140.96613503 2.12511253 C142.66923118 4.93982071 142.7436847 6.62508464 142.75193787 9.90112305 C142.7618425 11.0115094 142.77174713 12.12189575 142.7819519 13.26593018 C142.77745026 14.47956238 142.77294861 15.69319458 142.76831055 16.94360352 C142.7751738 18.22523376 142.78203705 19.50686401 142.78910828 20.82733154 C142.80705112 24.33972046 142.80586945 27.85185972 142.80016589 31.3642807 C142.79707606 34.29681003 142.80316408 37.22929125 142.80920464 40.16181374 C142.82325154 47.07935206 142.82168687 53.99676688 142.81030273 60.91430664 C142.79881707 68.05127198 142.81290404 75.18786175 142.83969921 82.3247776 C142.86184647 88.45313477 142.86849594 94.58137395 142.8626228 100.7097683 C142.85925014 104.3696937 142.86168859 108.02937826 142.87887383 111.68927002 C142.89719493 115.76908209 142.88316613 119.84816167 142.8659668 123.92797852 C142.88046875 125.74842682 142.88046875 125.74842682 142.89526367 127.60565186 C142.88051247 129.27123138 142.88051247 129.27123138 142.86546326 130.97045898 C142.86525397 131.93498993 142.86504469 132.89952087 142.86482906 133.89328003 C142.20246331 137.25758074 141.11243381 138.42171651 138.36425781 140.43579102 C135.84853745 140.93915558 135.84853745 140.93915558 132.96380615 140.94372559 C131.86761459 140.95500488 130.77142303 140.96628418 129.64201355 140.97790527 C128.44401627 140.96980835 127.24601898 140.96171143 126.01171875 140.95336914 C124.74626724 140.96037842 123.48081573 140.9673877 122.17701721 140.97460938 C118.70766344 140.99284325 115.23878557 140.98577342 111.76942348 140.97309303 C108.13364326 140.96295672 104.49790343 140.97236127 100.86212158 140.9786377 C94.7522451 140.98591601 88.64256196 140.9763256 82.53271484 140.95727539 C75.48215418 140.93554504 68.43205691 140.94252898 61.38150764 140.96458101 C55.32016546 140.98277651 49.25896225 140.98527199 43.19760156 140.97482634 C39.58115829 140.96860907 35.96493219 140.96770589 32.34850311 140.98097229 C28.31018507 140.99475076 24.27265528 140.97561378 20.234375 140.95336914 C19.04447464 140.96146606 17.85457428 140.96956299 16.62861633 140.97790527 C8.90500565 140.89924235 3.0292476 140.05905417 -2.69433594 134.40063477 C-3.149375 133.73161133 -3.60441406 133.06258789 -4.07324219 132.37329102 C-4.78287109 131.36588867 -4.78287109 131.36588867 -5.50683594 130.33813477 C-7.48957811 126.99697408 -7.7635347 124.26103002 -7.77618408 120.46362305 C-7.78189423 119.43730774 -7.78760437 118.41099243 -7.79348755 117.35357666 C-7.79460541 116.22828552 -7.79572327 115.10299438 -7.796875 113.94360352 C-7.80432236 112.1652713 -7.80432236 112.1652713 -7.81192017 110.35101318 C-7.82402683 107.09902117 -7.83148593 103.8470651 -7.83593082 100.59505463 C-7.83886262 98.56395693 -7.84296754 96.53286488 -7.847435 94.50177002 C-7.86110373 88.14847019 -7.87077452 81.79518325 -7.87463689 75.44186974 C-7.87912206 68.10440312 -7.89669363 60.76712238 -7.92563748 53.4297123 C-7.94723124 47.75915964 -7.95733986 42.08865938 -7.95867801 36.41806602 C-7.95972732 33.03036731 -7.96566212 29.64284347 -7.98349762 26.25518799 C-8.00047362 22.47930638 -7.99869867 18.70388236 -7.9921875 14.92797852 C-8.00140228 13.80268738 -8.01061707 12.67739624 -8.02011108 11.51800537 C-8.01454193 10.49169006 -8.00897278 9.46537476 -8.00323486 8.40795898 C-8.00470142 7.51495087 -8.00616798 6.62194275 -8.00767899 5.70187378 C-7.23064582 0.9676784 -4.40361916 0.06104341 0 0 Z " fill="#2872A3" transform="translate(1078.6357421875,936.564208984375)"/>
<path d="M0 0 C1.118871 -0.0071553 2.237742 -0.01431061 3.39051819 -0.02168274 C4.61866745 -0.02437164 5.84681671 -0.02706055 7.11218262 -0.02983093 C9.05144875 -0.03968773 9.05144875 -0.03968773 11.02989197 -0.04974365 C15.31707523 -0.07076025 19.60425877 -0.08114014 23.89147949 -0.09111023 C25.36707071 -0.09515794 26.84266173 -0.09927487 28.31825256 -0.10346031 C35.24713214 -0.12250252 42.17600109 -0.13673857 49.10490179 -0.14507228 C57.10857786 -0.15485754 65.11197831 -0.18121435 73.11555719 -0.22157317 C79.29990455 -0.25169126 85.48417267 -0.26653683 91.66859198 -0.26985329 C95.36374488 -0.27220771 99.05860299 -0.28121909 102.75367737 -0.30631447 C106.87205512 -0.33383477 110.98981266 -0.32977738 115.10827637 -0.32279968 C116.33642563 -0.33560974 117.56457489 -0.3484198 118.8299408 -0.36161804 C119.9488118 -0.35467422 121.0676828 -0.34773041 122.22045898 -0.34057617 C123.19458488 -0.34296453 124.16871078 -0.34535288 125.17235565 -0.34781361 C127.61022949 0.14717102 127.61022949 0.14717102 129.42286015 1.83607197 C130.85651869 4.62654901 130.99001645 6.47939228 130.99790955 9.61250305 C131.00781418 10.7228894 131.01771881 11.83327576 131.02792358 12.97731018 C131.02342194 14.19094238 131.01892029 15.40457458 131.01428223 16.65498352 C131.02114548 17.93661377 131.02800873 19.21824402 131.03507996 20.53871155 C131.0530228 24.05110046 131.05184113 27.56323972 131.04613757 31.07566071 C131.04304774 34.00819003 131.04913576 36.94067126 131.05517632 39.87319374 C131.06922322 46.79073206 131.06765855 53.70814688 131.05627441 60.62568665 C131.04478875 67.76265199 131.05887572 74.89924175 131.08567089 82.03615761 C131.10781815 88.16451477 131.11446762 94.29275395 131.10859448 100.4211483 C131.10522182 104.08107371 131.10766027 107.74075826 131.1248455 111.40065002 C131.14316661 115.4804621 131.12913781 119.55954167 131.11193848 123.63935852 C131.12644043 125.45980682 131.12644043 125.45980682 131.14123535 127.31703186 C131.12648415 128.98261139 131.12648415 128.98261139 131.11143494 130.68183899 C131.11122565 131.64636993 131.11101637 132.61090088 131.11080074 133.60466003 C130.46522153 136.88369822 129.17807927 138.07863353 126.61022949 140.14717102 C124.53041077 140.66183472 124.53041077 140.66183472 122.28820801 140.68061829 C121.02153038 140.70437279 121.02153038 140.70437279 119.72926331 140.72860718 C118.37290016 140.72116737 118.37290016 140.72116737 116.98913574 140.71357727 C115.58376808 140.72287514 115.58376808 140.72287514 114.15000916 140.73236084 C112.17053262 140.73945781 110.19099637 140.73628714 108.21154785 140.72358704 C105.18641973 140.70973371 102.16439263 140.74377808 99.13952637 140.78193665 C97.2143954 140.78288799 95.28926058 140.7810282 93.36413574 140.77607727 C92.46191788 140.78933548 91.55970001 140.80259369 90.63014221 140.81625366 C86.09883193 140.74925136 84.24404257 140.67226929 80.64538574 137.69087219 C79.6379834 136.43174011 79.6379834 136.43174011 78.61022949 135.14717102 C76.35447373 133.78674639 76.35447373 133.78674639 74.04772949 132.89717102 C73.30394043 132.58263977 72.56015137 132.26810852 71.79382324 131.94404602 C62.17476346 128.43369147 50.70512589 129.04156945 41.23522949 132.68623352 C38.6709059 133.99276034 38.6709059 133.99276034 36.98016357 135.57679749 C31.41619746 140.39858583 27.12442568 141.01332365 19.90710449 140.87373352 C18.9068927 140.87473053 17.90668091 140.87572754 16.87615967 140.87675476 C14.77506507 140.87209752 12.67395678 140.85278356 10.57312012 140.8195343 C7.35531367 140.77209855 4.14079973 140.77845716 0.92272949 140.79170227 C-1.12416527 140.780555 -3.17104611 140.76633918 -5.21789551 140.74873352 C-6.17834778 140.75055634 -7.13880005 140.75237915 -8.12835693 140.7542572 C-9.02318787 140.73519318 -9.9180188 140.71612915 -10.83996582 140.69648743 C-11.62413879 140.68727264 -12.40831177 140.67805786 -13.21624756 140.66856384 C-16.26058518 139.93827674 -17.40575199 138.53441118 -19.38977051 136.14717102 C-19.89313507 133.78762436 -19.89313507 133.78762436 -19.89770508 131.12635803 C-19.91462402 129.608283 -19.91462402 129.608283 -19.93188477 128.05953979 C-19.92378784 126.9550499 -19.91569092 125.85056 -19.90734863 124.71260071 C-19.91435791 123.54468491 -19.92136719 122.3767691 -19.92858887 121.17346191 C-19.94622091 117.30508272 -19.93452371 113.43743293 -19.92102051 109.56904602 C-19.92191108 106.88107206 -19.92759041 104.19311116 -19.93261719 101.50514221 C-19.93989455 95.86604403 -19.93030799 90.22715535 -19.91125488 84.58808899 C-19.8895279 78.08283077 -19.89650626 71.57807486 -19.9185605 65.07282901 C-19.9367627 59.47857092 -19.93924817 53.88446338 -19.92880583 48.29018521 C-19.92259167 44.95313995 -19.92326245 41.61651831 -19.93495178 38.27945709 C-19.94513822 34.55240244 -19.92958278 30.82630319 -19.90734863 27.09931946 C-19.91544556 26.00292648 -19.92354248 24.90653351 -19.93188477 23.7769165 C-19.84927375 16.2819215 -18.68046626 10.8766262 -13.57336426 5.08857727 C-12.99715332 4.63353821 -12.42094238 4.17849915 -11.82727051 3.70967102 C-11.24848145 3.23658508 -10.66969238 2.76349915 -10.07336426 2.27607727 C-6.77631423 0.06529431 -3.84619948 0.01687324 0 0 Z " fill="#2872A3" transform="translate(1090.3897705078125,762.8528289794922)"/>
</svg>
